<?xml version="1.0" standalone="no"?><!DOCTYPE svg PUBLIC "-//W3C//DTD SVG 1.1//EN" "http://www.w3.org/Graphics/SVG/1.1/DTD/svg11.dtd"><svg class="icon" width="200px" height="200.00px" viewBox="0 0 1024 1024" version="1.1" xmlns="http://www.w3.org/2000/svg"><path fill="#333333" d="M654 260.5L392.4 522.1c-5.9 5.9-15.4 5.9-21.2 0-5.9-5.9-5.9-15.4 0-21.2l261.6-261.6c5.9-5.9 15.4-5.9 21.2 0 5.9 5.8 5.9 15.3 0 21.2z"  /><path fill="#333333" d="M631.8 784.7L370.2 523.1c-5.9-5.9-5.9-15.4 0-21.2 5.9-5.9 15.4-5.9 21.2 0L653 763.5c5.9 5.9 5.9 15.4 0 21.2-5.9 5.9-15.4 5.9-21.2 0z"  /></svg>