<?xml version="1.0" standalone="no"?><!DOCTYPE svg PUBLIC "-//W3C//DTD SVG 1.1//EN" "http://www.w3.org/Graphics/SVG/1.1/DTD/svg11.dtd"><svg class="icon" width="200px" height="200.00px" viewBox="0 0 1024 1024" version="1.1" xmlns="http://www.w3.org/2000/svg"><path fill="#333333" d="M365.1 613c-7.4 0-14.7-2.8-20.3-8.4-11.2-11.2-11.2-29.4 0-40.6l114.5-114.4c29.1-29 76.4-29 105.5 0L679.3 564c11.2 11.2 11.2 29.4 0 40.6-11.2 11.2-29.4 11.2-40.6 0L524.3 490.2c-6.7-6.7-17.6-6.7-24.3 0L385.4 604.6c-5.6 5.6-12.9 8.4-20.3 8.4z"  /><path fill="#333333" d="M720.9 884.7c-9 0-18.1-1.4-27-4.2L512 822.1l-181.6 58.3c-28.5 9.1-59.3 3.3-82.5-15.5-23.2-18.9-35.2-47.9-32-77.6L234.6 610l-127-156.7c-20.3-25-25.3-57.8-13.5-87.8s37.9-50.5 69.8-55l187-26.2 82.7-164.2c15-29.9 45.2-48.4 78.6-48.5h0.1c33.4 0 63.5 18.5 78.6 48.3l83.4 164.4 186.5 26.2c31.8 4.5 57.9 25 69.7 54.9 11.8 29.9 6.8 62.7-13.4 87.7L790.3 610l18.2 177.5c3 29.7-9 58.6-32.2 77.4-15.9 13.1-35.5 19.8-55.4 19.8zM512 769.6l197.2 63.3c12.5 4 25.5 1.6 35.7-6.7 10.2-8.3 15.3-20.5 13.9-33.5l-20.3-198L878 421.8c8.7-10.8 10.9-25 5.8-38-5.1-12.9-16.4-21.8-30.2-23.8l-212.3-29.8-95.2-187.6c-6.6-13.1-19.3-20.9-34-20.9h-0.1c-14.7 0-27.4 7.9-34 21l-94.5 187.6-212.9 29.8c-13.8 1.9-25.1 10.8-30.2 23.8s-2.9 27.2 5.9 38l140.1 172.8-20.9 197.8c-1.4 13.1 3.7 25.3 13.9 33.6s23.2 10.7 35.7 6.7L512 769.6z"  /></svg>