<?xml version="1.0" standalone="no"?><!DOCTYPE svg PUBLIC "-//W3C//DTD SVG 1.1//EN" "http://www.w3.org/Graphics/SVG/1.1/DTD/svg11.dtd"><svg class="icon" width="200px" height="181.40px" viewBox="0 0 1129 1024" version="1.1" xmlns="http://www.w3.org/2000/svg"><path fill="#333333" d="M577.324138 942.786207c-233.048276 0-423.724138-188.910345-423.724138-423.724138s190.675862-423.724138 423.724138-423.724138 423.724138 190.675862 423.724138 423.724138-190.675862 423.724138-423.724138 423.724138z m0-810.372414c-213.627586 0-388.413793 174.786207-388.413793 388.413793s174.786207 388.413793 388.413793 388.413793 388.413793-174.786207 388.413793-388.413793c0-215.393103-174.786207-388.413793-388.413793-388.413793z"  /><path fill="#333333" d="M741.517241 776.827586c-3.531034 0-7.062069-1.765517-10.593103-3.531034l-153.6-112.993104-153.6 112.993104c-7.062069 5.296552-14.124138 5.296552-21.186207 0-7.062069-5.296552-8.827586-12.358621-7.062069-19.42069l60.027586-180.082759-155.365517-111.227586c-7.062069-5.296552-8.827586-12.358621-7.062069-19.420689 1.765517-7.062069 8.827586-12.358621 17.655172-12.358621l190.675863 1.765517 58.262069-181.848276c1.765517-7.062069 8.827586-12.358621 17.655172-12.35862s14.124138 5.296552 17.655172 12.35862L653.241379 432.551724l190.675862-1.765517c7.062069 0 14.124138 5.296552 17.655173 12.358621 1.765517 7.062069 0 15.889655-7.062069 19.420689l-155.365517 111.227586L759.172414 753.875862c1.765517 7.062069 0 15.889655-7.062069 19.42069-3.531034 3.531034-7.062069 3.531034-10.593104 3.531034z m-164.193103-155.365517c3.531034 0 7.062069 1.765517 10.593103 3.531034l118.289656 88.275863-45.903449-141.24138c-1.765517-7.062069 0-15.889655 7.062069-19.420689l120.055173-86.510345-148.303449 1.765517c-7.062069 0-14.124138-5.296552-17.655172-12.358621l-44.137931-141.241379-44.137931 141.241379c-1.765517 7.062069-8.827586 12.358621-17.655173 12.358621l-148.303448-1.765517 120.055173 86.510345c7.062069 5.296552 8.827586 12.358621 7.062069 19.420689l-45.903449 141.24138 118.289655-88.275863c3.531034-1.765517 7.062069-3.531034 10.593104-3.531034z"  /></svg>